<?xml version="1.0" encoding="UTF-8"?><svg id="Layer_1" xmlns="http://www.w3.org/2000/svg" viewBox="0 0 208.65 71.96"><defs><style>.cls-1{fill:#419cd6;stroke-width:0px;}</style></defs><path class="cls-1" d="m37.94,35.96c0,5.04-1.78,9.34-5.33,12.89-3.55,3.55-7.85,5.33-12.89,5.33h-6.05v6.19c0,1.68-.6,3.12-1.8,4.32-1.2,1.2-2.64,1.8-4.32,1.8s-3.12-.6-4.32-1.8c-1.2-1.2-1.8-2.64-1.8-4.32v-24.41c0-5.04,1.79-9.35,5.36-12.92,3.58-3.58,7.88-5.36,12.92-5.36s9.34,1.79,12.89,5.36c3.55,3.58,5.33,7.88,5.33,12.92Zm-12.24,0c0-1.68-.59-3.11-1.76-4.28-1.18-1.18-2.58-1.76-4.21-1.76s-3.05.59-4.25,1.76c-1.2,1.18-1.8,2.6-1.8,4.28v5.98h6.05c1.68,0,3.1-.59,4.25-1.76,1.15-1.18,1.73-2.58,1.73-4.21Z"/><path class="cls-1" d="m53.35,11.48c0,1.68-.6,3.12-1.8,4.32-1.2,1.2-2.64,1.8-4.32,1.8s-3.13-.6-4.36-1.8c-1.22-1.2-1.84-2.64-1.84-4.32s.6-3.12,1.8-4.32,2.64-1.8,4.32-1.8,3.13.6,4.36,1.8c1.22,1.2,1.84,2.64,1.84,4.32Zm0,36.65c0,1.68-.6,3.12-1.8,4.32s-2.64,1.8-4.32,1.8-3.13-.6-4.36-1.8c-1.22-1.2-1.84-2.64-1.84-4.32v-19.87c0-1.68.6-3.12,1.8-4.32s2.64-1.8,4.32-1.8,3.13.6,4.36,1.8c1.22,1.2,1.84,2.64,1.84,4.32v19.87Z"/><path class="cls-1" d="m92.95,35.96c0,5.04-1.78,9.34-5.33,12.89-3.55,3.55-7.85,5.33-12.89,5.33h-6.05v6.19c0,1.68-.6,3.12-1.8,4.32-1.2,1.2-2.64,1.8-4.32,1.8s-3.12-.6-4.32-1.8c-1.2-1.2-1.8-2.64-1.8-4.32v-24.41c0-5.04,1.79-9.35,5.36-12.92,3.58-3.58,7.88-5.36,12.92-5.36s9.34,1.79,12.89,5.36c3.55,3.58,5.33,7.88,5.33,12.92Zm-12.24,0c0-1.68-.59-3.11-1.76-4.28-1.18-1.18-2.58-1.76-4.21-1.76s-3.05.59-4.25,1.76c-1.2,1.18-1.8,2.6-1.8,4.28v5.98h6.05c1.68,0,3.1-.59,4.25-1.76,1.15-1.18,1.73-2.58,1.73-4.21Z"/><path class="cls-1" d="m132.33,35.96c0,5.04-1.78,9.34-5.33,12.89-3.55,3.55-7.85,5.33-12.89,5.33h-6.05v6.19c0,1.68-.6,3.12-1.8,4.32-1.2,1.2-2.64,1.8-4.32,1.8s-3.12-.6-4.32-1.8c-1.2-1.2-1.8-2.64-1.8-4.32v-24.41c0-5.04,1.79-9.35,5.36-12.92,3.58-3.58,7.88-5.36,12.92-5.36s9.34,1.79,12.89,5.36c3.55,3.58,5.33,7.88,5.33,12.92Zm-12.24,0c0-1.68-.59-3.11-1.76-4.28-1.18-1.18-2.58-1.76-4.21-1.76s-3.05.59-4.25,1.76c-1.2,1.18-1.8,2.6-1.8,4.28v5.98h6.05c1.68,0,3.1-.59,4.25-1.76,1.15-1.18,1.73-2.58,1.73-4.21Z"/><path class="cls-1" d="m171.86,48.13c0,1.68-.6,3.12-1.8,4.32-1.2,1.2-2.64,1.8-4.32,1.8h-12.02c-5.04,0-9.36-1.79-12.96-5.36-3.6-3.58-5.4-7.88-5.4-12.92s1.79-9.35,5.36-12.92c3.58-3.58,7.88-5.36,12.92-5.36,4.27,0,8.06,1.32,11.38,3.96,3.31,2.64,5.45,6.05,6.41,10.22.14.29.22.74.22,1.37,0,1.68-.6,3.12-1.8,4.32-1.2,1.2-2.64,1.8-4.32,1.8-3.02,0-5-1.56-5.94-4.68-.94-3.12-2.89-4.68-5.87-4.68-1.68,0-3.12.59-4.32,1.76-1.2,1.18-1.8,2.58-1.8,4.21s.6,3.05,1.8,4.25c1.2,1.2,2.62,1.8,4.25,1.8h12.02c1.68,0,3.13.6,4.36,1.8,1.22,1.2,1.84,2.64,1.84,4.32Z"/><path class="cls-1" d="m207.79,23.8c0,1.68-.6,3.12-1.8,4.32-1.2,1.2-2.64,1.8-4.32,1.8h-9c-1.63,0-3.05.59-4.25,1.76-1.2,1.18-1.8,2.6-1.8,4.28v12.17c0,1.68-.6,3.12-1.8,4.32s-2.64,1.8-4.32,1.8-3.13-.6-4.36-1.8c-1.22-1.2-1.84-2.64-1.84-4.32v-12.17c0-5.04,1.79-9.35,5.36-12.92s7.88-5.36,12.92-5.36h9c1.68,0,3.13.6,4.36,1.8,1.22,1.2,1.84,2.64,1.84,4.32Z"/></svg>